<?xml version="1.0" encoding="UTF-8" standalone="no"?>
<svg
   version="1.1"
   x="0px"
   y="0px"
   viewBox="0 0 60.002499 51.002498"
   enable-background="new 0 0 60 51"
   xml:space="preserve"
   id="svg5"
   sodipodi:docname="3d-coordinates.svg"
   width="60.002499"
   height="51.002499"
   inkscape:version="1.4.4 (dcaf3e7, 2026-05-05)"
   xmlns:inkscape="http://www.inkscape.org/namespaces/inkscape"
   xmlns:sodipodi="http://sodipodi.sourceforge.net/DTD/sodipodi-0.dtd"
   xmlns="http://www.w3.org/2000/svg"
   xmlns:svg="http://www.w3.org/2000/svg"><defs
     id="defs5" /><sodipodi:namedview
     id="namedview5"
     pagecolor="#ffffff"
     bordercolor="#000000"
     borderopacity="0.25"
     inkscape:showpageshadow="2"
     inkscape:pageopacity="0.0"
     inkscape:pagecheckerboard="0"
     inkscape:deskcolor="#d1d1d1"
     inkscape:zoom="14.566667"
     inkscape:cx="30.377574"
     inkscape:cy="26.121281"
     inkscape:window-width="1921"
     inkscape:window-height="1186"
     inkscape:window-x="639"
     inkscape:window-y="30"
     inkscape:window-maximized="0"
     inkscape:current-layer="svg5" /><g
     id="g4"
     transform="translate(0,0.0025)"><path
       fill="#000000"
       d="M 31,30.47 V 12 c 0,-0.55 -0.45,-1 -1,-1 -0.55,0 -1,0.45 -1,1 v 18.49 l -17.59,12.7 c -0.45,0.32 -0.55,0.95 -0.22,1.4 0.32,0.45 0.95,0.55 1.4,0.23 L 30.02,32.23 48.44,44.83 C 48.61,44.94 48.8,45 49,45 c 0.32,0 0.63,-0.15 0.83,-0.44 0.31,-0.46 0.2,-1.08 -0.26,-1.39 z"
       id="path1" /><path
       fill="#000000"
       d="M 29,4.41 V 7 c 0,0.55 0.45,1 1,1 0.55,0 1,-0.45 1,-1 V 4.41 L 33.71,1.7 c 0.39,-0.39 0.39,-1.02 0,-1.41 -0.39,-0.39 -1.02,-0.39 -1.41,0 L 30,2.59 27.71,0.3 c -0.39,-0.39 -1.02,-0.39 -1.41,0 -0.39,0.39 -0.39,1.02 0,1.41 z"
       id="path2" /><path
       fill="#000000"
       d="m 57.41,47 2.29,-2.29 c 0.39,-0.39 0.39,-1.02 0,-1.41 -0.39,-0.39 -1.02,-0.39 -1.41,0 L 56,45.59 53.71,43.3 c -0.39,-0.39 -1.02,-0.39 -1.41,0 -0.39,0.39 -0.39,1.02 0,1.41 L 54.59,47 52.3,49.29 c -0.39,0.39 -0.39,1.02 0,1.41 0.19,0.2 0.44,0.3 0.7,0.3 0.26,0 0.51,-0.1 0.71,-0.29 l 2.29,-2.3 2.29,2.29 c 0.2,0.2 0.45,0.3 0.71,0.3 0.26,0 0.51,-0.1 0.71,-0.29 0.39,-0.39 0.39,-1.02 0,-1.41 z"
       id="path3" /><path
       fill="#000000"
       d="m 7.92,44.38 c 0.1,-0.24 0.1,-0.52 0,-0.76 C 7.82,43.38 7.62,43.18 7.38,43.08 7.26,43.03 7.13,43 7,43 H 1 c -0.55,0 -1,0.45 -1,1 0,0.55 0.45,1 1,1 H 4.59 L 0.3,49.29 c -0.09,0.09 -0.17,0.2 -0.22,0.33 -0.1,0.24 -0.1,0.52 0,0.76 0.1,0.24 0.3,0.44 0.54,0.54 C 0.74,50.97 0.87,51 1,51 H 7 C 7.55,51 8,50.55 8,50 8,49.45 7.55,49 7,49 H 3.41 L 7.7,44.71 C 7.8,44.62 7.87,44.5 7.92,44.38 Z"
       id="path4" /></g></svg>
