<?xml version="1.0" encoding="UTF-8" standalone="no"?>
<svg
   version="1.1"
   viewBox="-5 -10 90.611557 90.724571"
   id="svg4"
   sodipodi:docname="contour.svg"
   width="90.611557"
   height="90.724571"
   inkscape:version="1.4.4 (dcaf3e7, 2026-05-05)"
   xmlns:inkscape="http://www.inkscape.org/namespaces/inkscape"
   xmlns:sodipodi="http://sodipodi.sourceforge.net/DTD/sodipodi-0.dtd"
   xmlns="http://www.w3.org/2000/svg"
   xmlns:svg="http://www.w3.org/2000/svg">
  <defs
     id="defs4" />
  <sodipodi:namedview
     id="namedview4"
     pagecolor="#ffffff"
     bordercolor="#000000"
     borderopacity="0.25"
     inkscape:showpageshadow="2"
     inkscape:pageopacity="0.0"
     inkscape:pagecheckerboard="0"
     inkscape:deskcolor="#d1d1d1"
     inkscape:zoom="7.4740741"
     inkscape:cx="46.360258"
     inkscape:cy="46.627849"
     inkscape:window-width="2430"
     inkscape:window-height="1186"
     inkscape:window-x="0"
     inkscape:window-y="30"
     inkscape:window-maximized="0"
     inkscape:current-layer="g3" />
  <g
     fill-rule="evenodd"
     id="g3"
     transform="translate(-9.7004436,-14.73938)">
    <path
       d="m 50.895,8.9453 c 7.4141,-6.5625 16.203,-4.8984 24.062,1.2227 11.16,8.6875 20.355,26.5 20.355,40.273 0,13.785 -8.6055,30.898 -19.656,39.449 -7.7109,5.9727 -16.57,7.832 -24.629,2.1562 -2.168,-1.5273 -4.5469,-4.5469 -7.5078,-8.4727 -6.5234,-8.6484 -16.188,-21.82 -34.172,-31.766 -4.6562,-2.5742 -5.5625,-8.3711 -3.8281,-14.461 1.4375,-5.0547 4.6445,-10.273 8.457,-13.594 2.7305,-2.375 5.7852,-3.7734 8.7422,-3.6797 12.934,0.42188 21.672,-5.3828 28.172,-11.129 z m 2.0703,2.3398 c -6.9922,6.1836 -16.422,12.367 -30.344,11.914 -2.25,-0.07422 -4.5156,1.1094 -6.5898,2.9141 -3.3906,2.9531 -6.2266,7.5977 -7.5039,12.094 -1.2891,4.5273 -1.125,8.957 2.3359,10.871 15.863,8.7734 25.453,19.969 32.098,28.59 4.2344,5.5 7.1836,9.9375 9.8672,11.828 6.8516,4.8281 14.359,3.0078 20.918,-2.0703 10.359,-8.0195 18.441,-24.055 18.441,-36.977 0,-12.934 -8.668,-29.648 -19.148,-37.809 -6.5625,-5.1094 -13.883,-6.8242 -20.074,-1.3477 z"
       id="path1" />
    <path
       d="m 53.363,21.605 c 5.1094,-4.5156 11.16,-3.4297 16.578,0.78906 7.4883,5.8281 13.652,17.785 13.652,27.027 0,9.2539 -5.7734,20.742 -13.191,26.484 -5.293,4.0977 -11.375,5.332 -16.902,1.4375 -1.4609,-1.0312 -3.0781,-3.0625 -5.0781,-5.7109 -4.2812,-5.6719 -10.613,-14.32 -22.41,-20.844 -3.2812,-1.8125 -4.0039,-5.875 -2.7812,-10.164 0.97656,-3.4375 3.1562,-6.9805 5.75,-9.2344 1.9141,-1.668 4.0664,-2.6289 6.1406,-2.5625 8.3789,0.27344 14.035,-3.5 18.242,-7.2227 z m 2.0703,2.3398 c -4.7031,4.1602 -11.051,8.3125 -20.414,8.0039 -1.3633,-0.04687 -2.7305,0.69922 -3.9883,1.7969 -2.168,1.8867 -3.9766,4.8594 -4.7969,7.7344 -0.77734,2.7266 -0.79297,5.4219 1.2891,6.5742 10.562,5.8398 16.949,13.289 21.371,19.031 2.7539,3.5781 4.6602,6.4727 6.4062,7.7031 4.3203,3.0469 9.0547,1.8477 13.188,-1.3555 6.7266,-5.207 11.98,-15.617 11.98,-24.012 0,-8.4062 -5.6406,-19.262 -12.449,-24.562 -4.1172,-3.207 -8.7031,-4.3477 -12.586,-0.91406 z"
       id="path2" />
    <path
       d="m 60.696329,33.598146 c 6.4688,0 11.719,5.25 11.719,11.719 0,6.469 -5.25,11.719 -11.719,11.719 -6.469,0 -11.719,-5.25 -11.719,-11.719 0,-6.469 5.25,-11.719 11.719,-11.719 z m 0,3.125 c -4.7422,0 -8.5938,3.8516 -8.5938,8.5938 0,4.7422 3.8516,8.5938 8.5938,8.5938 4.7422,0 8.5938,-3.8516 8.5938,-8.5938 0,-4.7422 -3.8516,-8.5938 -8.5938,-8.5938 z"
       id="path3" />
  </g>
</svg>
