<svg id="svg" xmlns="http://www.w3.org/2000/svg" xmlns:xlink="http://www.w3.org/1999/xlink" width="400" height="400" viewBox="0, 0, 400,400"><g id="svgg"><path id="path0" d="M136.211 63.477 C 88.494 111.276,71.502 128.786,67.410 134.375 C -14.015 245.590,63.226 400.071,200.219 399.992 C 336.911 399.912,413.898 245.431,332.590 134.375 C 327.851 127.902,201.648 0.000,200.000 0.000 C 199.768 0.000,171.063 28.564,136.211 63.477 M200.000 208.594 L 200.000 357.813 194.727 357.798 C 184.803 357.772,168.489 354.542,157.769 350.481 C 79.536 320.843,51.549 227.286,100.936 160.496 C 106.090 153.526,198.108 59.375,199.766 59.375 C 199.895 59.375,200.000 126.523,200.000 208.594 " stroke="none" fill="#000000" fill-rule="evenodd"></path></g></svg>