<svg class="svg-icon" style="width: 1em;height: 1em;vertical-align: middle;fill: currentColor;overflow: hidden;" viewBox="96 96 832 832" version="1.1" xmlns="http://www.w3.org/2000/svg"><path d="M448 832v-288h384v288H448z m32-32h320v-224H480v224z m-192 96H96V429.888L414.08 96l317.568 288H288v512z m-32-32V352h392.736l-233.024-211.328L128 442.688V864h128z m96-384v-32h96v32h-96 96-96z m192 0v-32h96v32h-96z m-96 0h96-96z m448 64v-96h32v96h-32v-96 96z m0 192v-96h32v96h-32v-96 96z m0 192v-96h32v96h-32z m-160-32h96v32h-96v-32h96-96z m-192 0h96v32h-96v-32h96-96z m-192 0h96v32h-96v-32z m32-64h-32v-96h32v96-96 96z m0-192v-96 96h-32v-96h32v96z m352-192h96v32h-96v-32z"  /></svg>