<?xml version="1.0" encoding="UTF-8" standalone="no"?>
<!-- Region-move tool icon: a region blob with a drag arrow. -->
<svg xmlns="http://www.w3.org/2000/svg" viewBox="0 0 44 44" width="44" height="44" fill="#000000">
  <path d="m 17.115582,8.9648664 c 1.707597,-3.3276806 4.729468,-4.6824281 7.540287,-5.2348498 3.827703,-0.947008 7.991169,0.1052238 11.051414,3.5118228 2.523022,2.604273 4.518416,6.7079726 4.345738,11.1668036 -0.278204,2.985704 -2.398311,5.011251 -4.470451,5.274308 -2.638142,0.565574 -5.314655,0.09206 -7.943203,-0.341976 C 23.811664,22.446579 19.916808,20.499952 17.153955,16.606696 15.89724,14.462775 15.820494,11.12194 17.115585,8.9648664 Z"
        fill="none" stroke="#000000" stroke-width="2.1" stroke-miterlimit="10"/>
  <path d="m 26.741429,13.966963 6.746922,16.786269 3.229398,-4.060758 3.583857,3.583857 2.761195,-2.761196 -3.583856,-3.571852 4.060758,-3.2354 z"/>
</svg>
