<?xml version="1.0" encoding="UTF-8" standalone="no"?>
<svg
   version="1.0"
   width="512.000000pt"
   height="512.000000pt"
   viewBox="0 0 512.000000 512.000000"
   preserveAspectRatio="xMidYMid meet"
   style="width: 496.558px; height: auto;"
   id="svg3"
   sodipodi:docname="smooth.svg"
   inkscape:export-filename="smooth.svg"
   inkscape:export-xdpi="6.75"
   inkscape:export-ydpi="6.75"
   inkscape:version="1.4.4 (dcaf3e7, 2026-05-05)"
   xmlns:inkscape="http://www.inkscape.org/namespaces/inkscape"
   xmlns:sodipodi="http://sodipodi.sourceforge.net/DTD/sodipodi-0.dtd"
   xmlns="http://www.w3.org/2000/svg"
   xmlns:svg="http://www.w3.org/2000/svg">
  <defs
     id="defs3" />
  <sodipodi:namedview
     id="namedview3"
     pagecolor="#ffffff"
     bordercolor="#000000"
     borderopacity="0.25"
     inkscape:showpageshadow="2"
     inkscape:pageopacity="0.0"
     inkscape:pagecheckerboard="0"
     inkscape:deskcolor="#d1d1d1"
     inkscape:document-units="pt"
     inkscape:zoom="1.2802734"
     inkscape:cx="340.94279"
     inkscape:cy="340.94279"
     inkscape:window-width="2020"
     inkscape:window-height="1186"
     inkscape:window-x="0"
     inkscape:window-y="30"
     inkscape:window-maximized="0"
     inkscape:current-layer="svg3" />
  <g
     transform="translate(0.000000,512.000000) scale(0.100000,-0.100000)"
     fill="#000000"
     stroke="none"
     id="g3">
    <path
       d="M3525 4350 c-178 -20 -404 -84 -536 -151 -181 -91 -300 -176 -587 -416 -314 -264 -471 -351 -737 -409 -110 -25 -368 -30 -501 -10 -270 40 -461 133 -731 355 -141 117 -166 131 -233 131 -145 0 -241 -145 -181 -275 11 -24 48 -67 92 -106 332 -292 599 -432 944 -495 143 -26 509 -26 650 0 365 67 587 190 1042 574 287 243 462 337 723 389 119 24 423 24 540 0 251 -50 435 -146 687 -358 137 -115 189 -138 266 -119 88 23 157 108 157 195 0 70 -30 116 -130 201 -337 287 -595 419 -930 478 -112 20 -418 29 -535 16z"
       id="path1" />
    <path
       d="M3590 3259 c-227 -15 -455 -78 -640 -175 -149 -79 -272 -165 -445 -310 -254 -213 -289 -241 -376 -299 -229 -154 -446 -216 -749 -216 -383 0 -620 93 -963 380 -144 120 -187 137 -281 109 -83 -25 -147 -127 -133 -213 12 -71 37 -103 169 -212 370 -307 667 -435 1073 -462 341 -23 666 39 925 175 176 93 276 166 595 434 356 299 585 391 975 391 383 0 620 -93 963 -380 144 -120 187 -137 281 -109 83 25 147 127 133 213 -12 71 -37 103 -169 212 -373 310 -664 435 -1082 463 -78 5 -145 9 -151 8 -5 0 -62 -4 -125 -9z"
       id="path2" />
    <path
       d="M3545 2164 c-299 -43 -461 -94 -670 -214 -96 -56 -225 -147 -320 -227 -271 -228 -342 -285 -416 -335 -157 -105 -310 -170 -489 -205 -119 -24 -423 -24 -540 0 -249 50 -435 147 -682 354 -62 52 -128 101 -145 109 -168 73 -339 -97 -264 -262 13 -29 49 -67 111 -120 338 -288 591 -418 935 -480 76 -14 151 -18 315 -18 283 0 443 28 667 118 189 75 353 187 671 453 314 264 471 351 737 409 110 25 368 30 501 10 270 -40 461 -133 731 -355 141 -117 166 -131 233 -131 145 0 241 145 181 275 -11 24 -48 67 -92 106 -325 287 -605 434 -944 495 -86 15 -450 28 -520 18z"
       class=""
       id="path3" />
  </g>
</svg>
