<?xml version="1.0" encoding="UTF-8" standalone="no"?>
<svg
   version="1.1"
   x="0px"
   y="0px"
   viewBox="0 0 97.458 56.268002"
   enable-background="new 0 0 100 100"
   xml:space="preserve"
   id="svg2"
   sodipodi:docname="surface.svg"
   width="97.458"
   height="56.268002"
   inkscape:version="1.4.4 (dcaf3e7, 2026-05-05)"
   xmlns:inkscape="http://www.inkscape.org/namespaces/inkscape"
   xmlns:sodipodi="http://sodipodi.sourceforge.net/DTD/sodipodi-0.dtd"
   xmlns="http://www.w3.org/2000/svg"
   xmlns:svg="http://www.w3.org/2000/svg"><defs
     id="defs2" /><sodipodi:namedview
     id="namedview2"
     pagecolor="#ffffff"
     bordercolor="#000000"
     borderopacity="0.25"
     inkscape:showpageshadow="2"
     inkscape:pageopacity="0.0"
     inkscape:pagecheckerboard="0"
     inkscape:deskcolor="#d1d1d1"
     inkscape:zoom="8.072"
     inkscape:cx="38.899901"
     inkscape:cy="40.696234"
     inkscape:window-width="2129"
     inkscape:window-height="1186"
     inkscape:window-x="0"
     inkscape:window-y="30"
     inkscape:window-maximized="0"
     inkscape:current-layer="svg2" /><path
     d="M 0,28.134 48.729,56.268 97.458,28.134 48.729,0 Z M 65.142,12.94 c -2.17,1.243 -4.297,2.382 -6.716,3.101 -0.188,0.056 -0.359,0.097 -0.537,0.143 -0.967,-0.47 -1.934,-0.931 -2.889,-1.381 -1.228,-0.579 -2.455,-1.158 -3.672,-1.76 -0.598,-0.296 -1.189,-0.608 -1.785,-0.917 2.444,-1.302 4.848,-2.673 7.205,-4.033 z m 9.15,5.283 c -2.25,1.287 -4.672,2.571 -7.215,3.224 -1.281,-0.853 -2.584,-1.69 -3.91,-2.474 -1.392,-0.824 -2.828,-1.578 -4.271,-2.296 2.528,-0.789 4.808,-2.036 7,-3.3 z m 9.144,5.279 c -2.373,1.367 -4.79,2.739 -7.246,4.035 -0.665,-0.419 -1.332,-0.836 -1.986,-1.265 -1.305,-0.855 -2.593,-1.74 -3.879,-2.623 -0.808,-0.554 -1.627,-1.113 -2.455,-1.669 2.588,-0.767 5.021,-2.087 7.172,-3.324 z m 8.022,4.632 -7.269,4.197 c -2.335,-1.353 -4.81,-2.797 -7.271,-4.329 2.465,-1.312 4.889,-2.696 7.267,-4.067 z M 13.272,23.935 c 2.377,1.371 4.8,2.756 7.267,4.067 -2.461,1.53 -4.936,2.978 -7.271,4.329 L 6,28.134 Z m 9.143,-5.279 c 2.15,1.236 4.581,2.56 7.167,3.327 -0.824,0.555 -1.642,1.112 -2.446,1.664 -1.289,0.884 -2.577,1.77 -3.883,2.625 -0.653,0.429 -1.32,0.846 -1.984,1.265 -2.456,-1.296 -4.873,-2.669 -7.246,-4.036 z M 40.71,8.094 c 2.357,1.359 4.76,2.731 7.204,4.033 -0.595,0.308 -1.188,0.621 -1.786,0.917 -1.218,0.603 -2.446,1.182 -3.674,1.761 -0.953,0.45 -1.918,0.91 -2.883,1.378 -0.177,-0.046 -0.349,-0.087 -0.536,-0.143 -2.419,-0.719 -4.546,-1.857 -6.717,-3.104 z m 22.076,11.524 c 1.104,0.653 2.192,1.347 3.27,2.054 -0.887,0.163 -1.786,0.245 -2.697,0.21 -1.081,-0.035 -2.029,-0.117 -2.947,-0.197 -0.82,-0.071 -1.588,-0.135 -2.332,-0.152 -0.4,-0.455 -0.81,-0.904 -1.23,-1.341 -1.188,-1.227 -2.33,-2.218 -3.631,-2.904 0.502,0.043 1.002,0.076 1.519,0.076 0.918,0 1.907,-0.104 3.071,-0.385 1.682,0.822 3.361,1.683 4.977,2.639 z m -23.132,-2.64 c 1.163,0.281 2.152,0.385 3.069,0.385 0.531,0 1.043,-0.035 1.558,-0.08 -1.324,0.69 -2.479,1.68 -3.638,2.876 -0.434,0.447 -0.853,0.908 -1.265,1.375 -0.742,0.017 -1.509,0.08 -2.328,0.151 -0.918,0.08 -1.868,0.163 -2.95,0.197 -0.911,0.032 -1.809,-0.051 -2.692,-0.212 1.075,-0.706 2.162,-1.399 3.265,-2.051 1.616,-0.957 3.297,-1.818 4.981,-2.641 z m 9.099,-0.01 c 3.307,0.033 5.343,1.457 7.555,3.745 0.262,0.271 0.515,0.553 0.769,0.833 -2.164,0.115 -4.211,0.856 -6.836,3.44 -0.523,0.514 -1.022,1.049 -1.511,1.593 -0.489,-0.544 -0.988,-1.079 -1.511,-1.593 -2.625,-2.584 -4.673,-3.324 -6.838,-3.438 0.265,-0.291 0.528,-0.584 0.801,-0.866 2.207,-2.277 4.244,-3.692 7.571,-3.714 z m -14.628,5.664 c 1.102,-0.036 2.105,-0.123 2.991,-0.199 0.564,-0.049 1.091,-0.093 1.597,-0.123 -0.847,0.999 -1.66,2.016 -2.454,3.018 -0.471,0.594 -0.941,1.188 -1.419,1.777 -1.63,2.008 -3.054,3.555 -4.481,4.875 -0.935,-0.453 -1.868,-0.896 -2.791,-1.333 -1.229,-0.579 -2.458,-1.159 -3.676,-1.762 -0.62,-0.307 -1.235,-0.631 -1.851,-0.951 0.542,-0.344 1.088,-0.684 1.623,-1.034 1.311,-0.86 2.604,-1.747 3.896,-2.633 0.98,-0.672 1.977,-1.352 2.984,-2.025 1.17,0.275 2.367,0.427 3.581,0.39 z m 1.297,4.945 c 0.48,-0.591 0.952,-1.188 1.425,-1.784 0.928,-1.171 1.882,-2.366 2.885,-3.519 2.319,-0.007 4.247,0.575 6.96,3.246 0.532,0.523 1.041,1.072 1.539,1.629 -1.017,1.17 -1.981,2.375 -2.918,3.563 -1.281,1.623 -2.606,3.3 -4.051,4.827 -0.559,0.59 -1.142,1.142 -1.733,1.676 -1.246,-0.827 -2.512,-1.64 -3.799,-2.401 -1.516,-0.896 -3.084,-1.709 -4.657,-2.482 1.39,-1.309 2.784,-2.827 4.349,-4.755 z m 6.385,8.476 c 1.468,-1.551 2.804,-3.242 4.095,-4.877 0.91,-1.151 1.845,-2.322 2.827,-3.457 0.982,1.135 1.917,2.306 2.828,3.458 1.292,1.635 2.627,3.327 4.095,4.877 0.529,0.559 1.078,1.083 1.636,1.591 -0.91,0.611 -1.813,1.228 -2.699,1.833 -1.293,0.887 -2.586,1.774 -3.898,2.635 -0.646,0.424 -1.304,0.836 -1.96,1.25 -0.656,-0.414 -1.315,-0.826 -1.961,-1.25 -1.312,-0.859 -2.605,-1.748 -3.898,-2.635 -0.887,-0.606 -1.788,-1.222 -2.698,-1.833 0.555,-0.508 1.104,-1.032 1.633,-1.592 z m 14.39,-0.514 c -1.444,-1.526 -2.771,-3.204 -4.051,-4.827 -0.937,-1.188 -1.901,-2.394 -2.918,-3.564 0.498,-0.557 1.007,-1.105 1.539,-1.628 2.714,-2.67 4.642,-3.254 6.961,-3.247 1,1.15 1.953,2.343 2.879,3.512 0.479,0.606 0.961,1.212 1.449,1.813 1.557,1.918 2.944,3.431 4.33,4.729 -1.572,0.773 -3.14,1.588 -4.656,2.483 -1.288,0.763 -2.554,1.574 -3.799,2.401 -0.593,-0.531 -1.177,-1.082 -1.734,-1.672 z m 6.44,-8.413 c -0.486,-0.599 -0.965,-1.203 -1.444,-1.807 -0.792,-0.999 -1.604,-2.014 -2.448,-3.01 0.506,0.03 1.034,0.074 1.6,0.124 0.885,0.077 1.888,0.164 2.988,0.199 1.211,0.035 2.408,-0.119 3.576,-0.395 1.01,0.674 2.01,1.356 2.991,2.03 1.292,0.886 2.583,1.772 3.894,2.632 0.535,0.351 1.082,0.691 1.623,1.035 -0.615,0.32 -1.23,0.644 -1.852,0.951 -1.221,0.604 -2.452,1.185 -3.684,1.767 -0.918,0.433 -1.844,0.875 -2.772,1.323 -1.435,-1.323 -2.86,-2.866 -4.472,-4.849 z M 52.254,16.442 c -0.889,-0.092 -1.896,-0.197 -3.089,-0.222 -0.003,0 -0.005,0 -0.008,0 -0.031,0 -0.058,0.01 -0.087,0.017 -0.105,-0.003 -0.201,-0.019 -0.31,-0.02 h -10e-4 c -10e-4,0 -10e-4,0 -0.002,0 0,0 -10e-4,0 -0.002,0 -0.111,0 -0.21,0.016 -0.319,0.02 -0.043,-0.013 -0.088,-0.021 -0.142,-0.017 -1.193,0.024 -2.2,0.129 -3.089,0.221 -1.517,0.158 -2.794,0.288 -4.459,0.003 0.679,-0.325 1.356,-0.645 2.028,-0.961 1.232,-0.582 2.465,-1.163 3.688,-1.768 0.76,-0.376 1.514,-0.77 2.268,-1.165 0.753,0.395 1.507,0.788 2.267,1.164 1.223,0.604 2.455,1.186 3.687,1.766 0.673,0.317 1.353,0.637 2.032,0.963 -1.669,0.286 -2.945,0.156 -4.462,-0.001 z M 31.562,13.376 c 2.194,1.264 4.474,2.512 7.001,3.3 -1.443,0.718 -2.88,1.473 -4.272,2.296 -1.324,0.784 -2.625,1.62 -3.905,2.472 -2.548,-0.652 -4.968,-1.934 -7.219,-3.221 z M 21.309,28.401 c 0.748,0.392 1.497,0.782 2.251,1.156 1.223,0.604 2.456,1.187 3.689,1.769 0.831,0.393 1.67,0.791 2.51,1.195 -2.139,1.883 -4.357,3.33 -7.349,5.088 l -8.392,-4.845 c 2.351,-1.362 4.83,-2.821 7.291,-4.363 z m 9.172,4.473 c 1.646,0.806 3.288,1.65 4.866,2.584 1.217,0.72 2.418,1.486 3.601,2.27 -2.394,2.064 -4.973,3.729 -7.394,5.161 l -8.4,-4.85 c 2.912,-1.725 5.146,-3.212 7.327,-5.165 z m 9.111,5.285 c 0.962,0.646 1.916,1.295 2.853,1.938 1.297,0.891 2.595,1.779 3.911,2.645 0.552,0.361 1.115,0.713 1.675,1.066 -2.483,1.546 -4.975,3.004 -7.325,4.364 l -8.409,-4.854 c 2.4,-1.434 4.934,-3.098 7.295,-5.159 z m 9.137,6.093 c 2.46,1.541 4.932,2.996 7.273,4.353 l -7.273,4.199 -7.273,-4.199 c 2.342,-1.358 4.814,-2.813 7.273,-4.353 z m 0.697,-0.444 c 0.56,-0.355 1.123,-0.705 1.674,-1.066 1.316,-0.862 2.613,-1.754 3.911,-2.644 0.938,-0.643 1.892,-1.293 2.854,-1.938 2.362,2.063 4.896,3.726 7.295,5.158 l -8.41,4.854 c -2.347,-1.359 -4.839,-2.817 -7.324,-4.364 z m 9.082,-6.08 c 1.185,-0.783 2.385,-1.549 3.602,-2.27 1.579,-0.934 3.221,-1.778 4.866,-2.583 2.181,1.952 4.414,3.438 7.327,5.164 l -8.399,4.849 c -2.421,-1.432 -5,-3.095 -7.396,-5.16 z m 9.201,-5.212 c 0.834,-0.401 1.668,-0.799 2.492,-1.188 1.235,-0.581 2.471,-1.166 3.696,-1.771 0.754,-0.374 1.503,-0.764 2.251,-1.156 2.461,1.542 4.939,3 7.291,4.362 l -8.393,4.846 C 72.107,35.878 69.872,34.414 67.709,32.516 Z M 48.729,11.709 C 46.266,10.409 43.841,9.032 41.46,7.661 l 7.269,-4.197 7.27,4.197 c -2.381,1.371 -4.806,2.748 -7.27,4.048 z"
     id="path1" /></svg>
