<?xml version="1.0" encoding="UTF-8" standalone="no"?>
<svg
   version="1.1"
   x="0px"
   y="0px"
   viewBox="0 0 94.235001 94.235001"
   xml:space="preserve"
   id="svg3"
   sodipodi:docname="undo.svg"
   width="94.235001"
   height="94.235001"
   inkscape:version="1.4.4 (dcaf3e7, 2026-05-05)"
   xmlns:inkscape="http://www.inkscape.org/namespaces/inkscape"
   xmlns:sodipodi="http://sodipodi.sourceforge.net/DTD/sodipodi-0.dtd"
   xmlns="http://www.w3.org/2000/svg"
   xmlns:svg="http://www.w3.org/2000/svg"><defs
     id="defs3" /><sodipodi:namedview
     id="namedview3"
     pagecolor="#ffffff"
     bordercolor="#000000"
     borderopacity="0.25"
     inkscape:showpageshadow="2"
     inkscape:pageopacity="0.0"
     inkscape:pagecheckerboard="0"
     inkscape:deskcolor="#d1d1d1"
     inkscape:zoom="3.4064432"
     inkscape:cx="90.12333"
     inkscape:cy="70.748282"
     inkscape:window-width="1602"
     inkscape:window-height="937"
     inkscape:window-x="0"
     inkscape:window-y="33"
     inkscape:window-maximized="0"
     inkscape:current-layer="svg3" /><path
     d="m 47.117502,19.632555 c -1.625538,0 -2.944904,1.319305 -2.944904,2.944843 V 47.1175 c 0,1.625538 1.319366,2.944843 2.944904,2.944843 h 24.5401 c 1.625542,0 2.944847,-1.319305 2.944847,-2.944843 0,-1.625538 -1.319305,-2.944843 -2.944847,-2.944843 H 50.062345 V 22.577398 c 0,-1.625538 -1.319305,-2.944843 -2.944843,-2.944843 z"
     id="path1" /><path
     d="M 47.117502,0 C 30.166487,0 14.563719,8.8527551 5.889627,22.31924 V 10.797962 C 5.889627,9.1724251 4.5703807,7.8531791 2.9448438,7.8531791 1.3192468,7.8531791 0,9.1724251 0,10.797962 v 25.522301 c 0,1.625537 1.3192468,2.944786 2.9448438,2.944786 H 28.466298 c 1.625538,0 2.944904,-1.319248 2.944904,-2.944786 0,-1.625595 -1.319366,-2.944905 -2.944904,-2.944905 H 6.9362455 C 12.77435,17.243078 29.069193,5.8896873 47.117502,5.8896873 c 22.734146,0 41.227806,18.4936677 41.227806,41.2278137 0,22.734146 -18.49366,41.227813 -41.227806,41.227813 -11.025909,0 -21.36816,-4.291458 -29.127132,-12.093537 -1.150271,-1.15039 -3.015257,-1.1539 -4.165587,-0.0079 -1.150329,1.146759 -1.158261,3.011749 -0.0079,4.166374 C 22.683048,89.327453 34.51346,94.235 47.117502,94.235 c 25.980919,0 47.1175,-21.135856 47.1175,-47.1175 C 94.235002,21.136579 73.098421,0 47.117502,0 Z"
     id="path2" /></svg>
