<?xml version="1.0" encoding="UTF-8" standalone="no"?>
<!-- Delete-vertex tool icon: a region blob with three corner vertices and a minus glyph. -->
<svg xmlns="http://www.w3.org/2000/svg" viewBox="0 0 44 44" width="44" height="44" fill="#000000">
  <g transform="matrix(1.5222969,0,0,1.5222969,-8.2143505,-7.6146399)">
    <path d="m 9.35834,12.33267 c 1.78,-2.53 4.93,-3.56 7.86,-3.98 3.98,-0.72 8.33,0.08 11.52,2.67 2.62,1.98 4.71,5.1 4.53,8.49 -0.29,2.27 -2.5,3.81 -4.66,4.01 -2.75,0.43 -5.54,0.07 -8.28,-0.26 -3.99,-0.68 -8.05,-2.16 -10.93,-5.12 -1.32,-1.63 -1.39,-4.17 -0.04,-5.81 z"
          fill="none" stroke="#000000" stroke-width="1.6" stroke-miterlimit="10"/>
    <circle cx="8.294" cy="15.248" r="2.63"/>
    <circle cx="19.781" cy="8.287" r="2.63"/>
    <circle cx="25.044" cy="23.748" r="2.63"/>
  </g>
  <path d="M 0.55,34.3 v 3.4 H 14.95 V 34.3 Z"/>
</svg>
